<svg height="512pt" viewBox="0 0 512 512" width="512pt" xmlns="http://www.w3.org/2000/svg">
    <path d="m55.0625 113.886719c1.796875 1.355469 3.910156 2.011719 6.003906 2.011719 3.023438 0 6.015625-1.363282 7.984375-3.953126l.191407-.25c3.382812-4.363281 2.589843-10.644531-1.773438-14.03125-4.363281-3.382812-10.648438-2.589843-14.03125 1.773438-.050781.066406-.324219.421875-.375.488281-3.296875 4.414063-2.398438 10.644531 2 13.960938zm0 0"/>
    <path d="m437.019531 74.980469c-48.351562-48.351563-112.640625-74.980469-181.019531-74.980469-12.449219 0-24.796875.910156-36.960938 2.679688-.371093.035156-.738281.089843-1.101562.164062-49.707031 7.441406-96.277344 29.355469-133.957031 63.5625-4.089844 3.710938-4.394531 10.035156-.683594 14.125s10.035156 4.394531 14.125.683594c2.207031-2.003906 4.457031-3.949219 6.730469-5.863282l12.347656 21.386719c-22.238281 14.5-41.265625 33.527344-55.765625 55.765625l-13.035156-7.527344c1.835937-3.4375 3.75-6.832031 5.757812-10.179687 2.84375-4.738281 1.304688-10.878906-3.429687-13.71875-4.738282-2.84375-10.878906-1.304687-13.722656 3.429687-3.917969 6.535157-7.523438 13.230469-10.824219 20.058594-.054688.109375-.109375.21875-.160157.328125-16.613281 34.488281-25.320312 72.464844-25.320312 111.105469 0 5.523438 4.476562 10 10 10h30c5.523438 0 10-4.476562 10-10 0-93.738281 76.261719-170 170-170 36.152344 0 71.398438 11.589844 100.40625 32.824219l-80.550781 80.550781c-6.347657-2.234375-12.996094-3.375-19.855469-3.375-33.082031 0-60 26.914062-60 60 0 33.082031 26.917969 60 60 60 33.085938 0 60-26.917969 60-60 0-6.859375-1.140625-13.507812-3.375-19.855469l80.550781-80.550781c21.234375 29.007812 32.824219 64.253906 32.824219 100.40625 0 5.523438 4.476562 10 10 10 5.519531 0 10-4.476562 10-10 0-30.117188-7.207031-59.671875-20.703125-86.199219l66.898437-38.625c21.015626 33.585938 33.832032 72.796875 35.59375 114.824219h-20.824218c-5.523438 0-10 4.476562-10 10s4.476562 10 10 10h31.035156c5.519531 0 10-4.476562 10-10 0-68.378906-26.628906-132.667969-74.980469-181.019531zm-406.757812 171.019531h-10.050781c1.207031-28.667969 7.609374-56.769531 18.8125-82.941406l11.691406 6.75c-11.800782 23.085937-19.027344 48.882812-20.453125 76.191406zm306.269531-211.835938-30.332031 52.535157c-23.585938-11.996094-49.558594-19.015625-76.199219-20.421875v-44.839844c8.589844-.945312 17.265625-1.4375 26-1.4375 28.269531 0 55.386719 5.007812 80.53125 14.164062zm-216.398438 28.863282c27-19.039063 57.589844-32.117188 89.867188-38.507813v41.746094c-27.308594 1.421875-53.105469 8.644531-76.191406 20.449219zm242.480469 58.84375-11.695312 11.695312c-.003907.003906-.003907.003906-.003907.007813l-126.671874 126.667969c-2.296876 2.300781-6.183594 2.300781-8.484376 0-2.296874-2.300782-2.296874-6.1875 0-8.484376l138.371094-138.371093c1.121094-1.121094 2.625-1.738281 4.242188-1.738281 1.613281 0 3.121094.617187 4.242187 1.738281 1.121094 1.121093 1.738281 2.625 1.738281 4.242187 0 1.617188-.617187 3.121094-1.738281 4.242188zm-102.613281 134.128906c0 22.054688-17.945312 40-40 40s-40-17.945312-40-40c0-22.058594 17.945312-40 40-40 1.042969 0 2.074219.050781 3.097656.128906l-21.484375 21.484375c-10.136719 10.140625-10.136719 26.632813 0 36.769531 5.070313 5.070313 11.730469 7.605469 18.386719 7.605469s13.316406-2.535156 18.386719-7.605469l21.480469-21.484374c.078124 1.027343.132812 2.058593.132812 3.101562zm119.300781-103.519531c-2.472656-3.8125-5.085937-7.539063-7.839843-11.175781l5.292968-5.292969c4.898438-4.894531 7.597656-11.425781 7.597656-18.382813 0-6.957031-2.699218-13.488281-7.597656-18.386718-4.898437-4.898438-11.425781-7.59375-18.382812-7.59375-6.957032 0-13.488282 2.699218-18.386719 7.597656l-5.292969 5.289062c-3.632812-2.753906-7.363281-5.363281-11.171875-7.839844l31.652344-54.824218c35.574219 16.542968 66.367187 41.691406 89.683594 72.761718zm0 0"/>
    <path d="m442.234375 246h-.269531c-5.523438 0-10 4.476562-10 10s4.476562 10 10 10h.269531c5.523437 0 10-4.476562 10-10s-4.476563-10-10-10zm0 0"/>
    <path d="m270.535156 421.867188c5.519532 0 10-4.480469 10-10 0-5.523438-4.480468-10-10-10h-32c-5.523437 0-10 4.476562-10 10v58.132812c0 5.523438 4.476563 10 10 10h32c5.519532 0 10-4.476562 10-10s-4.480468-10-10-10h-22v-9.066406h6c5.519532 0 10-4.476563 10-10 0-5.523438-4.480468-10-10-10h-6v-9.066406zm0 0"/>
    <path d="m192 401.867188h-14.535156c-5.519532 0-10 4.476562-10 10v58.132812c0 5.523438 4.480468 10 10 10 5.523437 0 10-4.476562 10-10v-19.066406h4.535156c13.527344 0 24.535156-11.007813 24.535156-24.535156 0-13.527344-11.007812-24.53125-24.535156-24.53125zm0 29.066406h-4.535156v-9.066406h4.535156c2.457031 0 4.535156 2.074218 4.535156 4.53125 0 2.457031-2.078125 4.535156-4.535156 4.535156zm0 0"/>
    <path d="m334.53125 421.867188c5.523438 0 10-4.480469 10-10 0-5.523438-4.476562-10-10-10h-31.996094c-5.523437 0-10 4.476562-10 10v58.132812c0 5.523438 4.476563 10 10 10h31.996094c5.523438 0 10-4.476562 10-10s-4.476562-10-10-10h-21.996094v-9.066406h6c5.519532 0 10-4.476563 10-10 0-5.523438-4.480468-10-10-10h-6v-9.066406zm0 0"/>
    <path d="m382.53125 401.867188h-16c-5.519531 0-10 4.476562-10 10v58.132812c0 5.523438 4.480469 10 10 10h16c14.339844 0 26-11.664062 26-26v-26.132812c0-14.339844-11.660156-26-26-26zm6 52.132812c0 3.253906-2.746094 6-6 6h-6v-38.132812h6c3.253906 0 6 2.746093 6 6zm0 0"/>
    <path d="m128 421.867188h17.46875c5.519531 0 10-4.480469 10-10 0-5.523438-4.480469-10-10-10h-17.46875c-13.527344 0-24.53125 11.003906-24.53125 24.53125 0 13.527343 11.003906 24.535156 24.53125 24.535156.5 0 .988281-.050782 1.464844-.121094.480468.074219.96875.121094 1.46875.121094 2.457031 0 4.53125 2.074218 4.53125 4.535156 0 2.457031-2.074219 4.53125-4.53125 4.53125h-17.46875c-5.519532 0-10 4.476562-10 10s4.480468 10 10 10h17.46875c13.527344 0 24.53125-11.003906 24.53125-24.53125 0-13.53125-11.003906-24.535156-24.53125-24.535156-.5 0-.988282.046875-1.46875.117187-.476563-.070312-.964844-.117187-1.464844-.117187-2.457031 0-4.53125-2.078125-4.53125-4.535156 0-2.457032 2.074219-4.53125 4.53125-4.53125zm0 0"/>
    <path d="m414.53125 369.867188h-317.0625c-14.339844 0-26 11.664062-26 26v90.132812c0 14.335938 11.660156 26 26 26h317.0625c14.335938 0 26-11.664062 26-26v-90.132812c0-14.335938-11.660156-26-26-26zm6 116.132812c0 3.253906-2.746094 6-6 6h-317.0625c-3.253906 0-6-2.746094-6-6v-90.132812c0-3.253907 2.746094-6 6-6h317.0625c3.253906 0 6 2.746093 6 6zm0 0"/>
</svg>