<?xml version="1.0" encoding="iso-8859-1"?>
<!-- Generator: Adobe Illustrator 19.0.0, SVG Export Plug-In . SVG Version: 6.00 Build 0)  -->
<svg version="1.1" id="Capa_1" xmlns="http://www.w3.org/2000/svg" x="0px" y="0px"
     viewBox="0 0 362.4 362.4" style="enable-background:new 0 0 362.4 362.4;" xml:space="preserve">
<g>
	<g>
		<g>
			<path d="M354.8,306.4h-62c14.8-14,26.8-30,35.6-48c12-24,18.4-50.8,18.4-78c0-48-19.6-91.6-50.8-123.2c-30.4-30.4-74-50-122-50
				S82.4,26.8,50.8,58C19.6,89.6,0,133.2,0,181.2s19.6,91.6,50.8,123.2c31.6,31.6,74.8,50.8,123.2,50.8c4,0,7.6-3.2,7.6-7.6V316
				c0-4-3.2-7.6-7.6-7.6c-4,0-7.6,3.2-7.6,7.6v24c-40.8-2-77.6-19.2-104.8-46.4s-44.4-64-46.4-104.8h24c4,0,7.6-3.2,7.6-7.6
				c0-4-3.2-7.6-7.6-7.6h-24c2-40.8,19.2-77.6,46.4-104.8c27.2-27.2,64-44.4,104.8-46.4v24c0,4,3.2,7.6,7.6,7.6c4,0,7.6-3.2,7.6-7.6
				v-24c40.8,2,77.6,19.2,104.8,46.4c27.2,27.2,44.4,64,46.4,104.8h-24c-4,0-7.6,3.2-7.6,7.6c0,4,3.2,7.6,7.6,7.6h24
				c-1.2,22.4-6.8,44.4-16.8,64c-8.8,17.2-20.8,33.2-35.2,46.4v-66.8c0-4-3.2-7.6-7.6-7.6c-4,0-7.6,3.2-7.6,7.6v82.4
				c0,0.4,0,0.8,0,1.2v0.4c0,0.4,0,0.8,0.4,0.8v0.4c0,0.4,0.4,0.4,0.4,0.8l0.4,0.4l0.4,0.4l0.4,0.4c0.4,0.4,0.4,0.4,0.8,0.4l0.4,0.4
				c0.4,0,0.4,0.4,0.8,0.4c0,0,0.4,0,0.4,0.4c0.4,0,0.4,0,0.8,0.4h0.4c0.4,0,0.8,0,0.8,0h0.4h82.4c4,0,7.6-3.2,7.6-7.6
				C362.4,310,359.2,306.4,354.8,306.4z"/>
            <path d="M193.2,162.4c-3.2-3.2-7.2-5.6-11.6-6.8V81.2c0-4-3.6-7.2-7.6-7.2s-7.6,3.2-7.6,7.6v74c-4.4,1.2-8.4,3.6-11.6,6.8
				s-5.2,6.8-6.8,11.2H92.4c-4,0-7.6,3.2-7.6,7.6c0,4,3.2,7.6,7.6,7.6H148c1.2,4.4,3.6,8.4,6.8,11.6c4.8,4.8,11.6,8,19.2,8
				c7.6,0,14-3.2,19.2-8c4.8-4.8,8-11.6,8-19.2c0-7.2-2.8-13.6-7.6-18.4L193.2,162.4z M182.4,189.6c-2,2-5.2,3.6-8.4,3.6
				s-6.4-1.2-8.4-3.6c-2-2-3.6-5.2-3.6-8.4c0-3.2,1.2-6.4,3.6-8.4c2-2,5.2-3.6,8.4-3.6s6.4,1.6,8.8,4c2,2,3.2,4.8,3.2,8
				S184.8,187.6,182.4,189.6z"/>
		</g>
	</g>
</g>
    <g>
</g>
    <g>
</g>
    <g>
</g>
    <g>
</g>
    <g>
</g>
    <g>
</g>
    <g>
</g>
    <g>
</g>
    <g>
</g>
    <g>
</g>
    <g>
</g>
    <g>
</g>
    <g>
</g>
    <g>
</g>
    <g>
</g>
</svg>
