<svg xmlns="http://www.w3.org/2000/svg" height="937.5pt" version="1.1" viewBox="0 0 937.5 937.5" width="937.5pt">
    <g id="surface1">
        <path d="M 875 125 L 875 156.25 C 892.261719 156.25 906.25 170.238281 906.25 187.5 L 906.25 656.25 L 31.25 656.25 L 31.25 187.5 C 31.25 170.238281 45.238281 156.25 62.5 156.25 L 62.5 125 C 27.984375 125 0 152.984375 0 187.5 L 0 718.75 C 0 753.265625 27.984375 781.25 62.5 781.25 L 369.625 781.25 L 332.125 906.25 L 296.875 906.25 L 296.875 937.5 L 640.625 937.5 L 640.625 906.25 L 605.375 906.25 L 567.875 781.25 L 875 781.25 C 909.515625 781.25 937.5 753.265625 937.5 718.75 L 937.5 187.5 C 937.5 152.984375 909.515625 125 875 125 Z M 572.75 906.25 L 364.75 906.25 L 402.25 781.25 L 535.25 781.25 Z M 906.25 718.75 C 906.25 736.011719 892.261719 750 875 750 L 62.5 750 C 45.238281 750 31.25 736.011719 31.25 718.75 L 31.25 687.5 L 906.25 687.5 Z M 906.25 718.75 "
              style=" stroke:none;fill-rule:nonzero;fill:rgb(0%,0%,0%);fill-opacity:1;"/>
        <path d="M 843.75 625 L 843.75 62.5 C 843.75 27.984375 815.765625 0 781.25 0 L 156.25 0 C 121.734375 0 93.75 27.984375 93.75 62.5 L 93.75 625 L 125 625 L 125 62.5 C 125 45.238281 138.988281 31.25 156.25 31.25 L 781.25 31.25 C 798.511719 31.25 812.5 45.238281 812.5 62.5 L 812.5 625 Z M 843.75 625 "
              style=" stroke:none;fill-rule:nonzero;fill:rgb(0%,0%,0%);fill-opacity:1;"/>
        <path d="M 156.25 62.5 L 187.5 62.5 L 187.5 93.75 L 156.25 93.75 Z M 156.25 62.5 "
              style=" stroke:none;fill-rule:nonzero;fill:rgb(0%,0%,0%);fill-opacity:1;"/>
        <path d="M 218.75 62.5 L 250 62.5 L 250 93.75 L 218.75 93.75 Z M 218.75 62.5 "
              style=" stroke:none;fill-rule:nonzero;fill:rgb(0%,0%,0%);fill-opacity:1;"/>
        <path d="M 281.25 62.5 L 312.5 62.5 L 312.5 93.75 L 281.25 93.75 Z M 281.25 62.5 "
              style=" stroke:none;fill-rule:nonzero;fill:rgb(0%,0%,0%);fill-opacity:1;"/>
        <path d="M 156.25 125 L 781.25 125 L 781.25 156.25 L 156.25 156.25 Z M 156.25 125 "
              style=" stroke:none;fill-rule:nonzero;fill:rgb(0%,0%,0%);fill-opacity:1;"/>
        <path d="M 453.125 203.125 C 453.125 194.492188 446.132812 187.5 437.5 187.5 L 171.875 187.5 C 163.242188 187.5 156.25 194.492188 156.25 203.125 L 156.25 421.875 C 156.25 430.507812 163.242188 437.5 171.875 437.5 L 437.5 437.5 C 446.132812 437.5 453.125 430.507812 453.125 421.875 Z M 250 406.25 L 187.5 406.25 L 187.5 296.875 L 250 296.875 Z M 421.875 406.25 L 281.25 406.25 L 281.25 296.875 L 421.875 296.875 Z M 421.875 265.625 L 187.5 265.625 L 187.5 218.75 L 421.875 218.75 Z M 421.875 265.625 "
              style=" stroke:none;fill-rule:nonzero;fill:rgb(0%,0%,0%);fill-opacity:1;"/>
        <path d="M 781.25 203.125 C 781.25 194.492188 774.257812 187.5 765.625 187.5 L 500 187.5 C 491.367188 187.5 484.375 194.492188 484.375 203.125 L 484.375 421.875 C 484.375 430.507812 491.367188 437.5 500 437.5 L 765.625 437.5 C 774.257812 437.5 781.25 430.507812 781.25 421.875 Z M 656.25 406.25 L 515.625 406.25 L 515.625 296.875 L 656.25 296.875 Z M 750 406.25 L 687.5 406.25 L 687.5 296.875 L 750 296.875 Z M 750 265.625 L 515.625 265.625 L 515.625 218.75 L 750 218.75 Z M 750 265.625 "
              style=" stroke:none;fill-rule:nonzero;fill:rgb(0%,0%,0%);fill-opacity:1;"/>
        <path d="M 453.125 625 L 453.125 484.375 C 453.125 475.742188 446.132812 468.75 437.5 468.75 L 171.875 468.75 C 163.242188 468.75 156.25 475.742188 156.25 484.375 L 156.25 625 L 187.5 625 L 187.5 578.125 L 421.875 578.125 L 421.875 625 Z M 187.5 546.875 L 187.5 500 L 421.875 500 L 421.875 546.875 Z M 187.5 546.875 "
              style=" stroke:none;fill-rule:nonzero;fill:rgb(0%,0%,0%);fill-opacity:1;"/>
        <path d="M 781.25 625 L 781.25 484.375 C 781.25 475.742188 774.257812 468.75 765.625 468.75 L 500 468.75 C 491.367188 468.75 484.375 475.742188 484.375 484.375 L 484.375 625 L 515.625 625 L 515.625 500 L 578.125 500 L 578.125 625 L 609.375 625 L 609.375 500 L 750 500 L 750 625 Z M 781.25 625 "
              style=" stroke:none;fill-rule:nonzero;fill:rgb(0%,0%,0%);fill-opacity:1;"/>
    </g>
</svg>