<?xml version="1.0" encoding="utf-8"?>
<!-- Generator: Adobe Illustrator 19.0.0, SVG Export Plug-In . SVG Version: 6.00 Build 0)  -->
<svg version="1.1" id="ee32c68f-7624-44c0-a731-77ce30d0b408"
     xmlns="http://www.w3.org/2000/svg" x="0px" y="0px" viewBox="542.3 -304.9 1000 710"
     style="enable-background:new 542.3 -304.9 1000 710;" xml:space="preserve">
<style type="text/css">
	.st0{fill:#F1F1F1;}
	.st1{fill:#EFC673;}
	.st2{fill:#3F3D56;}
	.st3{fill:none;stroke:#3F3D56;stroke-width:2;stroke-miterlimit:10;}
	.st4{fill:none;stroke:#EFC673;stroke-width:2;stroke-miterlimit:10;}
	.st5{fill:#D0CDE1;}
	.st6{opacity:0.1;enable-background:new    ;}
	.st7{fill:#9F616A;}
	.st8{fill:#2F2E41;}
</style>
    <title>responsiveness</title>
    <g>
	
		<rect x="770.1" y="-186.7" transform="matrix(-0.9577 -0.2879 0.2879 -0.9577 1977.0936 304.1988)" class="st0"
              width="481.5" height="386.9"/>
        <rect x="549.7" y="-161.9" class="st1" width="418" height="292.6"/>
        <rect x="549.7" y="-161.9" class="st2" width="349.9" height="225.4"/>
        <line class="st3" x1="900" y1="64" x2="938.7" y2="102.7"/>
        <polygon class="st2" points="929.3,103.7 929.4,101.9 938.3,102.2 937.9,93.4 939.7,93.3 940.1,104.1 	"/>
        <rect x="1139.9" y="-92.9" class="st2" width="223.6" height="199.3"/>
        <rect x="1139.9" y="-92.9" class="st1" width="129.9" height="89.3"/>
        <line class="st3" x1="990.3" y1="6.3" x2="1108.2" y2="6.3"/>
        <polygon class="st2" points="996.3,13.7 997.5,12.3 991,6.3 997.5,0.2 996.3,-1.1 988.4,6.3 	"/>
        <polygon class="st2" points="1102.2,13.7 1100.9,12.3 1107.5,6.3 1100.9,0.2 1102.2,-1.1 1110.1,6.3 	"/>
        <circle class="st2" cx="1049.2" cy="6.3" r="9.9"/>
        <circle class="st1" cx="1074.9" cy="6.3" r="5.4"/>
        <circle class="st1" cx="1022.6" cy="6.3" r="5.4"/>
        <line class="st4" x1="1363.5" y1="106.4" x2="1284.5" y2="7.8"/>
        <polygon class="st1" points="1294,7.9 1293.7,9.6 1284.9,8.3 1284.3,17.2 1282.5,17.1 1283.2,6.3 	"/>
        <circle class="st0" cx="745.7" cy="195.6" r="13.3"/>
        <circle class="st0" cx="1230.8" cy="-228.2" r="13.3"/>
        <circle class="st0" cx="767.3" cy="-273.3" r="13.3"/>
        <path class="st5" d="M1412.2,33.3l5.4-4.9c0,0,31.2-1.2,33.7,8.6c2.4,9.8-13.8,8.9-13.8,8.9L1412.2,33.3z"/>
        <path class="st6" d="M1412.2,33.3l5.4-4.9c0,0,31.2-1.2,33.7,8.6c2.4,9.8-13.8,8.9-13.8,8.9L1412.2,33.3z"/>
        <path class="st5"
              d="M1456.8,42.7h5.8l18,5.8c0,0,12.2,20.4,6.4,22.7c-5.8,2.3-7.6,3.5-14.5,1.7s-9.9-2.3-9.9-2.3L1456.8,42.7z"/>
        <polygon class="st7" points="1395.2,143.3 1409.1,163.7 1412,146.2 1401.6,140.4 	"/>
        <path class="st7" d="M1470.8,19.4c0,0-7-34.3-12.2-32c-5.2,2.3,0,22.7,0,22.7l8.1,13.4L1470.8,19.4z"/>
        <path class="st5" d="M1391.7,46.2l-7.6,6.4c0,0-37.2,47.1-23.3,61.7s36.1,33.7,36.1,33.7s9.3-5.8,8.7-7c-0.6-1.2-8.7-11.1-9.9-13.4
		s-8.7-10.5-8.7-14c0-3.5,1.2-3.5-1.7-4.7c-2.9-1.2-3.5-6.4-3.5-6.4l15.7-29.7L1391.7,46.2z"/>
        <path class="st5" d="M1469,63c0,0,0.6-5.2,0-7c-0.6-1.7,0.6-5.2,0-5.8c-0.6-0.6-6.4-15.1-5.8-17.5s0-13.4,0-13.4l8.1-3.5l4.1,10.5
		c0,0,8.7,8.7,7,9.9c-1.7,1.2,1.7,4.7,1.7,4.7l1.7,5.2l4.7,8.7c0,0,2,11.4-1.9,14.4C1484.7,72.3,1469,63,1469,63z"/>
        <circle class="st8" cx="1435.4" cy="-4.3" r="28.8"/>
        <path class="st7"
              d="M1423.7,12.4c0,0,1.2,19.2-1.7,22.1s11.1,8.1,11.1,8.1h12.8c0,0,0-25.6,2.9-30.2S1423.7,12.4,1423.7,12.4z"/>
        <path class="st6"
              d="M1423.7,12.4c0,0,1.2,19.2-1.7,22.1s11.1,8.1,11.1,8.1h12.8c0,0,0-25.6,2.9-30.2S1423.7,12.4,1423.7,12.4z"/>
        <circle class="st8" cx="1437.4" cy="-31.3" r="11.9"/>
        <path class="st8" d="M1421.5-37.7c0-6.1,4.6-11.2,10.7-11.8c-0.4,0-0.8-0.1-1.2-0.1c-6.6,0-11.9,5.3-11.9,11.9s5.3,11.9,11.9,11.9
		c0.4,0,0.8,0,1.2-0.1C1426.1-26.5,1421.5-31.6,1421.5-37.7z"/>
        <circle class="st7" cx="1435.6" cy="1.7" r="21.5"/>
        <ellipse class="st8" cx="1435.4" cy="-10.4" rx="19.8" ry="11.9"/>
        <path class="st5" d="M1435.3,38.6c0,0-16.3-12.2-19.8-9.9s-29.1,12.2-31.4,23.8s29.7,65.1,29.7,65.1l37.8-4.1l11.6-12.8l2.9-14
		c0,0,1.2-11.6,0-14c-1.2-2.3-1.2-29.7-3.5-30.2c-2.3-0.6-12.8-7.6-14-5.8C1447.5,38.6,1435.3,38.6,1435.3,38.6z"/>
        <path class="st8" d="M1370.2,331.8c0,0-10.5-1.7-10.5,7s-1.2,36.6-1.7,37.8c-0.6,1.2-18,8.1-9.3,9.3c8.7,1.2,21.5,0,21.5,0l2.9-5.8
		l2.9,6.3l6.5,0.5c0,0-1.2-26,1.7-30c2.9-4.1-4.7-14-4.7-14s1.7-12.2,0.6-11.1S1370.2,331.8,1370.2,331.8z"/>
        <path class="st8" d="M1465,338.2c0,0-5.2,18.6-4.1,20.9c1.2,2.3,0,9.9,0,9.9s-4.7,16.2,5.8,17.4c10.5,1.2,14-4,14-5.2
		s-2.3-16.9-2.3-19.8v-11.1l-0.6-12.2H1465z"/>
        <path class="st8" d="M1419.6,113.6l-7.6,4.1c0,0,0.6,12.8-2.9,18c-3.5,5.2-15.1,107.6-16.3,107.6c-1.2,0-5.8,15.1-8.7,18.6
		c-2.9,3.5-23.8,64-17.5,69.8c6.4,5.8,50.6,16.3,55.8,12.2s24.4-154.1,24.4-154.1s7,155.9,15.7,155.3c8.7-0.6,52.4-7.6,52.4-12.2
		s-19.2-208.8-46.5-224l-4.9-8C1463.6,101,1442.9,112.5,1419.6,113.6z"/>
        <line class="st3" x1="1227.3" y1="386.8" x2="1534.8" y2="386.8"/>
</g>
</svg>
