<?xml version="1.0" encoding="utf-8"?>
<!-- Generator: Adobe Illustrator 19.0.0, SVG Export Plug-In . SVG Version: 6.00 Build 0)  -->
<svg version="1.1" id="a594ac37-6d44-4297-8862-1cbd9c01c0b7"
     xmlns="http://www.w3.org/2000/svg" x="0px" y="0px" viewBox="576.1 -304.5 1000 710"
     style="enable-background:new 576.1 -304.5 1000 710;" xml:space="preserve">
<style type="text/css">
	.st0{fill:#F2F2F2;}
	.st1{fill:#3F3D56;}
	.st2{opacity:0.1;enable-background:new    ;}
	.st3{fill:#EFC673;}
	.st4{fill:#2F2E41;}
	.st5{fill:#FBBEBE;}
</style>
    <title>code review</title>
    <path class="st0" d="M1061.3,317.6c-197.1-15-432.2-167.7-420.2-325c12-157.3,239.6-303.7,436.8-288.7s310.6,308.9,298.6,466.2
	S1258.4,332.6,1061.3,317.6z"/>
    <ellipse class="st1" cx="1077.8" cy="317.6" rx="411.5" ry="25.2"/>
    <ellipse class="st2" cx="1077.8" cy="317.2" rx="350.5" ry="16.7"/>
    <ellipse class="st1" cx="790.7" cy="383.1" rx="172.6" ry="15"/>
    <ellipse class="st2" cx="790.7" cy="382.9" rx="147" ry="9.9"/>
    <rect x="777.7" y="-165.4" class="st1" width="611.5" height="479.8"/>
    <path class="st0" d="M1076.5-99.8H925.7c-1,0-1.8-0.8-1.8-1.8c0-1,0.8-1.8,1.8-1.8c0,0,0,0,0,0h150.9c1,0,1.8,0.8,1.8,1.8
	C1078.4-100.7,1077.5-99.8,1076.5-99.8z"/>
    <path class="st0" d="M1241.7-79.7h-237.3c-1,0-1.8-0.8-1.8-1.8c0-1,0.8-1.8,1.8-1.8l0,0h237.3c1,0,1.8,0.8,1.8,1.8
	C1243.5-80.5,1242.7-79.7,1241.7-79.7z"/>
    <path class="st0" d="M1077.3-59.6H926.4c-1,0-1.8-0.8-1.8-1.8c0-1,0.8-1.8,1.8-1.8h150.9c1,0,1.8,0.8,1.8,1.8
	C1079.1-60.4,1078.3-59.6,1077.3-59.6z"/>
    <path class="st0" d="M1241.7-59.2h-150.9c-1,0-1.8-0.8-1.8-1.8c0-1,0.8-1.8,1.8-1.8h150.9c1,0,1.8,0.8,1.8,1.8
	C1243.5-60,1242.7-59.2,1241.7-59.2z"/>
    <path class="st0" d="M1077.6-39.4H926.8c-1,0-1.8-0.8-1.8-1.8c0-1,0.8-1.8,1.8-1.8h150.9c1,0,1.8,0.8,1.8,1.8
	C1079.5-40.2,1078.6-39.4,1077.6-39.4z"/>
    <path class="st0"
          d="M1078-19.3H927.1c-1,0-1.8-0.8-1.8-1.8s0.8-1.8,1.8-1.8H1078c1,0,1.8,0.8,1.8,1.8S1079-19.3,1078-19.3z"/>
    <path class="st0" d="M1146.5-99.5h-43.2c-1,0-1.8-0.8-1.8-1.8c0-1,0.8-1.8,1.8-1.8l0,0h43.2c1,0,1.8,0.8,1.8,1.8
	C1148.3-100.3,1147.5-99.5,1146.5-99.5z"/>
    <path class="st0" d="M1146.5-39.4h-43.2c-1,0-1.8-0.8-1.8-1.8c0-1,0.8-1.8,1.8-1.8l0,0h43.2c1,0,1.8,0.8,1.8,1.8
	C1148.3-40.2,1147.5-39.4,1146.5-39.4z"/>
    <path class="st0" d="M1146.5-19.6h-43.2c-1,0-1.8-0.8-1.8-1.8c0-1,0.8-1.8,1.8-1.8c0,0,0,0,0,0h43.2c1,0,1.8,0.8,1.8,1.8
	C1148.3-20.5,1147.5-19.6,1146.5-19.6C1146.5-19.6,1146.5-19.6,1146.5-19.6z"/>
    <path class="st0" d="M1219-19.6h-43.2c-1,0-1.8-0.8-1.8-1.8c0-1,0.8-1.8,1.8-1.8h43.2c1,0,1.8,0.8,1.8,1.8
	C1220.8-20.5,1220-19.6,1219-19.6C1219-19.6,1219-19.6,1219-19.6z"/>
    <path class="st0" d="M968.5-79.7h-43.2c-1,0-1.8-0.8-1.8-1.8c0-1,0.8-1.8,1.8-1.8l0,0h43.2c1,0,1.8,0.8,1.8,1.8
	C970.3-80.5,969.5-79.7,968.5-79.7z"/>
    <path class="st0" d="M1076.7,196.8H925.9c-1,0-1.8-0.8-1.8-1.8c0-1,0.8-1.8,1.8-1.8l0,0h150.9c1,0,1.8,0.8,1.8,1.8
	C1078.6,195.9,1077.7,196.8,1076.7,196.8z"/>
    <path class="st0" d="M1076,237H925.1c-1,0-1.8-0.8-1.8-1.8c0-1,0.8-1.8,1.8-1.8l0,0H1076c1,0,1.8,0.8,1.8,1.8
	C1077.8,236.2,1077,237,1076,237z"/>
    <path class="st0" d="M1076.4,257.2H925.5c-1,0-1.8-0.8-1.8-1.8c0-1,0.8-1.8,1.8-1.8l0,0h150.9c1,0,1.8,0.8,1.8,1.8
	C1078.2,256.4,1077.4,257.2,1076.4,257.2z"/>
    <path class="st0" d="M1140.8,237.4h-43.2c-1,0-1.8-0.8-1.8-1.8c0-1,0.8-1.8,1.8-1.8h43.2c1,0,1.8,0.8,1.8,1.8
	C1142.6,236.6,1141.8,237.4,1140.8,237.4L1140.8,237.4z"/>
    <path class="st0" d="M1140.8,257.2h-43.2c-1,0-1.8-0.8-1.8-1.8c0-1,0.8-1.8,1.8-1.8h43.2c1,0,1.8,0.8,1.8,1.8
	C1142.6,256.4,1141.8,257.2,1140.8,257.2L1140.8,257.2z"/>
    <path class="st0" d="M1213.3,237.4h-43.2c-1,0-1.8-0.8-1.8-1.8c0-1,0.8-1.8,1.8-1.8h43.2c1,0,1.8,0.8,1.8,1.8
	C1215.1,236.6,1214.3,237.4,1213.3,237.4z"/>
    <path class="st0" d="M1241.9,216.9h-237.3c-1,0-1.8-0.8-1.8-1.8c0-1,0.8-1.8,1.8-1.8h237.3c1,0,1.8,0.8,1.8,1.8
	C1243.7,216.1,1242.9,216.9,1241.9,216.9z"/>
    <path class="st0" d="M968.7,216.9h-43.2c-1,0-1.8-0.8-1.8-1.8c0-1,0.8-1.8,1.8-1.8l0,0h43.2c1,0,1.8,0.8,1.8,1.8
	C970.5,216.1,969.7,216.9,968.7,216.9z"/>
    <path class="st0" d="M1241.9,277.7h-237.3c-1,0-1.8-0.8-1.8-1.8c0-1,0.8-1.8,1.8-1.8h237.3c1,0,1.8,0.8,1.8,1.8
	C1243.7,276.9,1242.9,277.7,1241.9,277.7L1241.9,277.7z"/>
    <path class="st0" d="M968.7,277.7h-43.2c-1,0-1.8-0.8-1.8-1.8c0-1,0.8-1.8,1.8-1.8l0,0h43.2c1,0,1.8,0.8,1.8,1.8
	C970.5,276.9,969.7,277.7,968.7,277.7z"/>
    <polygon class="st3" points="1040.3,29.1 981.7,86.9 1040.3,144.8 1053.5,131.6 1009.2,87.3 1053.8,42.6 "/>
    <polygon class="st3" points="1126.7,29.1 1185.3,86.9 1126.7,144.8 1113.5,131.6 1157.8,87.3 1113.2,42.6 "/>
    <circle class="st3" cx="794" cy="-153.2" r="7.3"/>
    <circle class="st3" cx="813.5" cy="-153.2" r="7.3"/>
    <circle class="st3" cx="833" cy="-153.2" r="7.3"/>
    <rect x="777.7" y="-141" class="st2" width="611.5" height="2.4"/>
    <path class="st0"
          d="M1534,196.8c0,51.9-30.8,70-68.9,70c-38,0-68.9-18.1-68.9-70S1465.1,79,1465.1,79S1534,145,1534,196.8z"/>
    <polygon class="st1" points="1462.6,258.9 1463.3,215.5 1492.7,161.8 1463.4,208.7 1463.8,189.1 1484,150.3 1463.9,184 1463.9,184
	1464.4,148.9 1486.1,118 1464.5,143.4 1464.9,79 1462.6,164.2 1462.8,160.7 1440.8,127 1462.5,167.4 1460.4,206.6 1460.3,205.6 
	1435,170.1 1460.3,209.3 1460,214.2 1460,214.2 1460,214.6 1454.8,314.1 1461.7,314.1 1462.6,262.7 1487.8,223.7 "/>
    <path class="st4" d="M717.9,313.6c-2.1,1.2-4.3,2.1-6.7,2.8c-4.1,1.1-8.5,0.7-12.7,1.7c-1.7,0.4-3.6,1.2-4.1,2.9
	c-0.4,1.2,0,2.5,0.5,3.8c4.6,13.5,7.4,27.9,14.7,40.1c3.1,5.1,6.9,9.8,11.4,13.8c1.7,1.5,3.6,3,5.8,3.2c3.2,0.3,6.1-2,6.5-5.2
	c0.1-1-0.1-2.1-0.5-3c-0.7-1.5-1.9-2.6-2.7-4c-0.9-1.8-1.4-3.7-1.5-5.7c-0.7-5.8-1.4-11.8,0.6-17.3c1.3-3.7,3.8-6.8,5.9-10.1
	c2.1-3.3,3.8-7.1,3.3-11c-0.3-2.6-1.6-5.1-3-7.4c-1.4-2.3-4.1-8.5-6.8-9.2C725.7,308.2,720.4,312.4,717.9,313.6z"/>
    <path class="st4" d="M793.1,360.3c0,1.3-0.1,2.6-0.5,3.9c-0.9,2.3-3,3.8-4.1,6c-1.5,3-0.8,6.6,0.2,9.9c0.6,2,1.5,4.1,3.2,5.4
	c1.5,0.9,3.1,1.4,4.8,1.6c14.7,2,29.6,0.9,44.4,1.3c2.7,0.1,5.6,0.2,7.9-1.1c2.4-1.3,3.8-4.6,2.2-6.8c-1.4-2-4.3-1.9-6.7-2
	c-6.3-0.3-12.3-2.8-17-7c-0.9-0.8-1.7-1.7-2.4-2.7c-0.5-0.9-0.9-1.9-1.2-2.9c-2.1-5.6-4.5-11.1-7.4-16.4c-0.8-1.5-1.7-3-3.2-3.8
	c-1.1-0.5-2.3-0.7-3.4-0.8c-3.7-0.2-13.2-1.5-16.1,1.4C791,348.8,793.1,357,793.1,360.3z"/>
    <circle class="st5" cx="815.8" cy="9.2" r="23.6"/>
    <path class="st5" d="M794.5,28.7c-1.4,3.8-3.8,7.3-7.2,9.3l32.6,6.6c-1.2-4.8-1.3-9.7-0.5-14.5c0.3-1.2,0.4-2.4,0.2-3.6
	c-0.6-2.4-3.3-3.5-5.7-4c-5.9-1.4-11.2-2.1-16.7-4.7C795.5,20.6,795.7,25.3,794.5,28.7z"/>
    <path class="st4" d="M787,29.1c7.1-3.2,15.3-3,22.2,0.6c4.2,2.2,7.6,5.5,11,8.8c3.1,3,6.5,6.5,6.7,10.8c0.1,2.1-0.5,4.2-0.9,6.2
	c-1.2,8.8,3.3,17.5,11.2,21.5c2.6,4.3,3.1,9.5,3.2,14.6c0.2,19.1-5.9,38.4-1.6,56.9c1,4.4,2.6,8.6,3.4,13c1.1,5.7,1.1,11.5,1.7,17.3
	c0.6,6.2,2,12.4,4.2,18.3c-1.4,2.3-4.4,3.1-7,2.9c-2.7-0.2-5.1-1.3-7.5-2.5c-11.5-5.9-22-13.6-33.9-18.6c-7.9-3.3-16.3-5.4-23.9-9.2
	c-7.6-3.8-14.7-9.9-17.1-18.1c-1-3.5-1.1-7.3-1.1-11c-0.2-15.5-0.4-31.3,2.9-46.4c3-13.4,8.7-26.2,10-39.8c0.4-4.4,0.4-9.2,2.9-12.9
	C776.9,36.3,784.5,34.9,787,29.1z"/>
    <path class="st4" d="M802.4,9.5c1.4-1.8,4.1-2.1,6.3-1.5s4.3,1.7,6.5,2.1c1,0.3,2.1,0.1,3-0.4c0.8-0.8,1.3-1.8,1.3-2.9
	c0.8-4.7,1-9.4,0.5-14.1c-0.1-0.7-0.1-1.3,0.1-2c0.6-1.3,2.2-1.7,3.6-2.1c4.7-1.6,7.7-6.1,7.3-11.1c0-1.2-0.5-2.2-1.3-3
	c-1-0.8-2.3-0.8-3.5-0.8c-6.3-0.1-12.7,0-19,0c-2.3,0-4.8,0.1-6.8,1.2c-1.5,0.9-2.6,2.3-4,3.3c-3.5,2.8-8.3,3.4-12.6,4.9
	c-2.1,0.6-4,1.7-5.5,3.3c-1.4,1.6-2.1,4-1.2,6c0.5,0.8,1,1.6,1.5,2.4c2.5,4,0.8,9.3,1.2,14c0.5,5.9,9.2,15.5,15.2,16.9
	C804.7,28,799.2,13.4,802.4,9.5z"/>
    <path class="st4" d="M789.1,269.4c0.6,4.3,1.4,8.7,1.2,13c-0.3,6.1-2.5,12-2.9,18.1c-0.3,4.5,0.4,9.1-0.2,13.7
	c-0.4,2.9-1.3,5.7-1.9,8.5c-1.9,9.4,0.2,19.2,5.7,27.1c0.4,0.7,1,1.2,1.6,1.6c0.7,0.2,1.3,0.3,2,0.3c6.9-0.1,13.7-0.8,20.5-1.9
	c0.5,0,1-0.2,1.3-0.6c0.2-0.2,0.3-0.5,0.3-0.8c1.3-6.5-1.6-12.9-2.3-19.5c-0.8-7,0.9-14,2.6-20.8c0.8-3.4,1.7-6.7,2.8-9.9
	c0.8-2.2,1.8-4.3,2.5-6.6c1-3.5,1.6-7.1,1.8-10.7c0.5-5.7,0.7-11.5,0.8-17.2c0.2-5.5-0.3-10.9-1.4-16.3c-1.5-6.8-4.7-13.1-7.8-19.3
	c-1.7,0.4-3.2,1.1-4.6,2.2c-4,2.6-8.2,4.9-12.5,6.9c-2.9,1.3-8.6,2.3-10.4,5.1c-1.8,2.8-0.6,8.4-0.5,11.5
	C787.9,259,788.3,264.2,789.1,269.4z"/>
    <path class="st2" d="M789.1,269.4c0.6,4.3,1.4,8.7,1.2,13c-0.3,6.1-2.5,12-2.9,18.1c-0.3,4.5,0.4,9.1-0.2,13.7
	c-0.4,2.9-1.3,5.7-1.9,8.5c-1.9,9.4,0.2,19.2,5.7,27.1c0.4,0.7,1,1.2,1.6,1.6c0.7,0.2,1.3,0.3,2,0.3c6.9-0.1,13.7-0.8,20.5-1.9
	c0.5,0,1-0.2,1.3-0.6c0.2-0.2,0.3-0.5,0.3-0.8c1.3-6.5-1.6-12.9-2.3-19.5c-0.8-7,0.9-14,2.6-20.8c0.8-3.4,1.7-6.7,2.8-9.9
	c0.8-2.2,1.8-4.3,2.5-6.6c1-3.5,1.6-7.1,1.8-10.7c0.5-5.7,0.7-11.5,0.8-17.2c0.2-5.5-0.3-10.9-1.4-16.3c-1.5-6.8-4.7-13.1-7.8-19.3
	c-1.7,0.4-3.2,1.1-4.6,2.2c-4,2.6-8.2,4.9-12.5,6.9c-2.9,1.3-8.6,2.3-10.4,5.1c-1.8,2.8-0.6,8.4-0.5,11.5
	C787.9,259,788.3,264.2,789.1,269.4z"/>
    <path class="st4" d="M757.2,177c-3.1,8.4,1.5,17.5,5.5,25.6c9.8,19.8,16.7,41,23.5,62.1c0.5,1.6,1,3.3,0.5,4.9
	c-0.5,1.1-1.3,2.1-2.3,2.7c-4.7,3.6-10.7,4.8-16.2,6.7c-5.4,1.8-10.6,4.2-15.4,7.2c-4,2.5-7.8,5.4-11.6,8.3l-12,9.2
	c-0.8,0.5-1.5,1.2-2,1.9c-1.2,1.8-0.7,4.2-0.1,6.3c1.5,5.5,3.5,10.9,5.9,16.1c0.4,1.1,1.1,2.1,2.1,2.8c1.9,1,4.2-0.3,5.6-1.9
	c1.4-1.6,2.7-3.5,4.7-4.2c2-0.7,4.2,0.1,6.4-0.2c3.4-0.5,5.7-3.6,8.1-6c10.1-9.9,26.8-9.1,37.9-17.9c1.6-1.4,3.3-2.8,5.1-4
	c1.9-1.1,4-1.7,5.9-2.7c5.9-3,9.6-9.1,11.6-15.4c2-6.3,2.6-13,4-19.4c0.7-3.3,1.7-6.6,2-10c0.2-3.2,0.1-6.3-0.2-9.5l-4-49.4
	c-0.3-4-0.7-8-1.3-12c-11.9,0.4-23.7,0.9-35.6,1C775.8,179.3,766.2,179.9,757.2,177z"/>
    <path class="st4" d="M752.9,188.5c1.6,2.6,5.5,2.5,8.2,1.1s4.8-3.8,7.5-5.2c3.6-1.9,7.9-1.8,12-1.7c6.5,0.2,13,0.4,19.3,2.2
	c6.4,1.8,12.7,5.4,19.4,4.7c1.2-0.1,2.4-0.5,3.1-1.4c0.4-0.7,0.5-1.5,0.5-2.3l0.2-5.8c0.1-1,0-2-0.5-2.9c-0.6-0.8-1.3-1.4-2.2-1.7
	c-9.5-4.6-20.3-5.4-30.8-5.8c-5.4-0.2-10.7-0.3-16.1-0.2c-4.5,0-10-0.6-14.4,0.6C753.1,171.5,749.8,183.7,752.9,188.5z"/>
    <path class="st3" d="M812.4,36c-12.4-0.1-23.7-8.3-36.1-8.5c-1.5-0.1-3,0.2-4.4,0.8c-1.7,0.9-2.9,2.6-4.2,4c-3.7,4-9,6.1-12.8,10
	c-3.5,3.6-5.5,9.1-4.1,13.9c1.4,4.9,6.7,8.6,11.6,7.5c2-6.4,6.1-12,11.7-15.8c2.9-1.9,5.9-3.5,9.1-4.8c5.6-2.5,11.8-5.1,17.7-3.2
	c2.2,0.8,4.2,1.9,6,3.3l9.7,6.5C815.5,45.2,814.5,40.2,812.4,36z"/>
    <path class="st3" d="M761,59.3c-1.7,2.1,0.7,5,0.4,7.7c-0.2,1.7-1.7,3.1-2.3,4.7c-0.6,1.7-0.3,3.6-0.5,5.4c-0.2,1.3-0.6,2.6-1,3.8
	c-1,3.7-1.8,7.5-2.2,11.4l-2.2,16.2c-0.4,2.4-0.6,4.9-0.7,7.4c0.1,1.8,0,3.7-0.4,5.5c-0.5,1.8-1.5,3.3-2.3,5
	c-0.7,1.7-1.1,3.7-0.1,5.3c-3.2,2.7-4.2,8-1.9,11.6c0.4,0.6,0.8,1.2,1,1.8c0.1,0.9,0,1.9-0.4,2.7l-2.2,5.9c-0.6,1.5-0.7,3.8,0.8,4.1
	c-1.3,1.3-2.3,2.9-3,4.7c-0.7,1.8-0.4,3.8,0.8,5.3c0.5,0.5,1,1,1.4,1.7c0.2,0.9,0.2,1.8-0.2,2.6c-0.7,2.6-0.2,5.3,1.2,7.6
	c1.5,2.3,4.2,3.4,6.8,2.9c4.4-1,8.4-2.6,12.8-1.7c9.6,1.8,19.1,3.5,28.4,6.5c10.6,3.4,20.8,8.3,31.8,9.4c0.7,0.1,1.5,0,2.1-0.3
	c0.6-0.5,0.9-1.3,1-2c1.1-5.3,2.3-10.7,3.4-16c1.4-5.9,2.4-11.9,3.1-17.9c0.4-3.9,0.5-7.8,0.6-11.7l0.9-31.1
	c0.4-4.6-0.2-9.2-1.8-13.5l-5.1-16.1c-2.9-9.2-9.5-17.4-11.9-26.7c-1.5-5.9-2.6-12.3-6.6-16.9c-5.7-6.6-15.6-7.6-24.2-6.5
	c-3.9,0.5-7.8,1.4-11.2,3.4c-3.9,2.3-6.8,6-9.6,9.6C765.7,54,763.4,56.4,761,59.3z"/>
    <path class="st5" d="M781.2,150.8c0.7,3.1,2.2,5.9,3.1,8.9c1.5,5,1.4,10.5,2.9,15.5c0.6,2.1,1.6,4.2,2,6.3
	c1.1,5.1-0.5,10.3-2.4,15.1c-1.9,4.8-4.3,9.5-5,14.6c-0.4,3.6,0.2,7.7,3,10c2.9,2.4,7.1,2.3,10.8,1.9c1.4,0,2.7-0.3,3.9-0.8
	c2.9-1.4,4.1-4.8,4.8-7.9c2.3-10.4,1.6-21.2,1-31.9l-1.7-27.8c-0.3-5.4-0.7-10.8-2.3-16c-0.6-1.9-1.6-5.7-3.4-6.9
	c-1.7-1.2-6.5-1.2-8.6-1.3C779.5,130.2,779.6,143.9,781.2,150.8z"/>
    <path class="st4" d="M792.1,48c-2-1.1-4.5-0.6-6.5,0.6c-1.9,1.3-3.5,2.9-4.9,4.7c-4.3,5.3-8.9,11.4-8.3,18.2c0.2,2.6,1.2,5,1.9,7.5
	c2.9,10.9-0.3,22.4,0.1,33.6c0.2,6.5,1.6,12.9,3,19.3c0.3,1.3,0.7,2.8,2,3.2c0.9,0.3,2-0.1,2.9-0.4c7.1-2.6,14.9-1.6,21.1,2.7
	c2.3-1.2,1.5-5.2,0.9-7.8c-1.6-7.7,0.6-15.6,3.1-23c2.6-7.4,5.6-14.8,6-22.7c0.5-8.9-2.5-17.5-5.4-25.9c-0.6-1.8-1.3-3.8-2.8-5
	c-1.3-0.9-2.7-1.6-4.2-1.9C798.1,50,794.9,49.5,792.1,48z"/>
</svg>
