<?xml version="1.0" encoding="iso-8859-1"?>
<!-- Generator: Adobe Illustrator 19.0.0, SVG Export Plug-In . SVG Version: 6.00 Build 0)  -->
<svg version="1.1" id="Capa_1" xmlns="http://www.w3.org/2000/svg" x="0px" y="0px"
     viewBox="0 0 60 60" style="enable-background:new 0 0 60 60;" xml:space="preserve">
<g>
	<path d="M0,0.5v59h60v-59H0z M58,57.5H2v-55h56V57.5z"/>
    <path d="M28.658,47.439C28.771,47.48,28.887,47.5,29,47.5c0.408,0,0.792-0.252,0.939-0.658L34.064,35.5h13.873l4.124,11.342
		C52.208,47.248,52.592,47.5,53,47.5c0.113,0,0.229-0.02,0.342-0.061c0.519-0.188,0.787-0.762,0.598-1.281l-12-33
		c-0.005-0.014-0.017-0.023-0.022-0.036c-0.027-0.066-0.069-0.122-0.11-0.181c-0.034-0.05-0.063-0.102-0.105-0.144
		c-0.041-0.041-0.093-0.069-0.141-0.103c-0.06-0.042-0.116-0.084-0.183-0.112c-0.014-0.006-0.023-0.017-0.037-0.022
		c-0.044-0.016-0.088-0.01-0.132-0.02c-0.07-0.015-0.138-0.031-0.211-0.031c-0.07,0-0.135,0.016-0.202,0.03
		c-0.046,0.01-0.093,0.004-0.138,0.021c-0.015,0.005-0.024,0.017-0.038,0.023c-0.065,0.027-0.119,0.068-0.177,0.108
		c-0.05,0.035-0.104,0.063-0.146,0.106c-0.041,0.041-0.069,0.093-0.103,0.142c-0.041,0.059-0.084,0.116-0.111,0.182
		c-0.006,0.014-0.017,0.022-0.022,0.036l-12,33C27.871,46.678,28.14,47.251,28.658,47.439z M34.791,33.5L41,16.425L47.209,33.5
		H34.791z"/>
    <path d="M7.644,47.435C7.761,47.479,7.882,47.5,8,47.5c0.402,0,0.782-0.245,0.935-0.644l2.802-7.356h8.526l2.802,7.356
		C23.218,47.255,23.598,47.5,24,47.5c0.118,0,0.239-0.021,0.356-0.065c0.516-0.196,0.774-0.774,0.578-1.291l-8-21
		c-0.004-0.009-0.012-0.015-0.016-0.024c-0.029-0.07-0.076-0.127-0.12-0.189c-0.032-0.045-0.056-0.096-0.095-0.135
		c-0.04-0.041-0.094-0.066-0.142-0.1c-0.06-0.042-0.116-0.088-0.183-0.116c-0.009-0.004-0.014-0.011-0.023-0.015
		c-0.047-0.018-0.094-0.013-0.142-0.024c-0.072-0.016-0.141-0.036-0.215-0.036c-0.075,0-0.145,0.02-0.217,0.036
		c-0.046,0.01-0.093,0.006-0.139,0.023c-0.009,0.003-0.014,0.011-0.023,0.014c-0.071,0.029-0.13,0.077-0.193,0.122
		c-0.044,0.032-0.094,0.055-0.132,0.093c-0.041,0.04-0.066,0.094-0.099,0.141c-0.042,0.06-0.087,0.115-0.115,0.183
		c-0.004,0.009-0.012,0.015-0.016,0.025l-8,21C6.869,46.66,7.128,47.238,7.644,47.435z M12.499,37.5L16,28.31l3.501,9.19H12.499z"/>
    <path d="M11,16.5c0.256,0,0.512-0.098,0.707-0.293L15,12.914V20.5c0,0.553,0.447,1,1,1s1-0.447,1-1v-7.586l3.293,3.293
		C20.488,16.402,20.744,16.5,21,16.5s0.512-0.098,0.707-0.293c0.391-0.391,0.391-1.023,0-1.414l-4.999-4.999
		c-0.092-0.093-0.203-0.166-0.326-0.217c-0.244-0.101-0.519-0.101-0.764,0c-0.123,0.051-0.234,0.125-0.326,0.217l-4.999,4.999
		c-0.391,0.391-0.391,1.023,0,1.414C10.488,16.402,10.744,16.5,11,16.5z"/>
</g>
    <g>
</g>
    <g>
</g>
    <g>
</g>
    <g>
</g>
    <g>
</g>
    <g>
</g>
    <g>
</g>
    <g>
</g>
    <g>
</g>
    <g>
</g>
    <g>
</g>
    <g>
</g>
    <g>
</g>
    <g>
</g>
    <g>
</g>
</svg>
