<svg height="512pt" viewBox="0 0 512 512" width="512pt" xmlns="http://www.w3.org/2000/svg">
    <path d="m435.957031 0h-250.601562c-13.015625 0-13.035157 20.277344 0 20.277344h250.601562c30.746094 0 55.765625 25.015625 55.765625 55.765625v359.914062c0 30.75-25.019531 55.765625-55.765625 55.765625h-359.914062c-30.75 0-55.765625-25.015625-55.765625-55.765625v-359.914062c0-30.75 25.015625-55.765625 55.765625-55.765625h27.554687c13.019532 0 13.039063-20.277344 0-20.277344h-27.554687c-41.929688 0-76.042969 34.113281-76.042969 76.042969v359.914062c0 41.929688 34.113281 76.042969 76.042969 76.042969h359.914062c41.929688 0 76.042969-34.113281 76.042969-76.042969v-359.914062c0-41.929688-34.113281-76.042969-76.042969-76.042969zm0 0"/>
    <path d="m65.488281 52.292969c-2.984375-2.988281-7.660156-3.78125-11.480469-1.996094-3.824218 1.789063-6.1875 5.925781-5.777343 10.132813.40625 4.210937 3.476562 7.796874 7.570312 8.859374 4.085938 1.058594 8.542969-.628906 10.90625-4.128906 2.691407-3.984375 2.179688-9.449218-1.21875-12.867187-1.882812-1.882813 1.886719 1.898437 0 0zm0 0"/>
    <path d="m457.414062 69.613281c4.234376 0 8.097657-2.738281 9.535157-6.710937 1.433593-3.964844.1875-8.566406-3.074219-11.253906-3.265625-2.683594-7.976562-3.046876-11.617188-.90625-3.636718 2.136718-5.601562 6.492187-4.800781 10.628906.917969 4.714844 5.148438 8.242187 9.957031 8.242187zm0 0"/>
    <path d="m143.957031 20.273438c5.417969 0 10.050781-4.542969 10.121094-9.964844.074219-5.625-4.535156-10.2734378-10.144531-10.277344-5.597656-.0078125-10.226563 4.753906-10.109375 10.347656.113281 5.382813 4.757812 9.894532 10.132812 9.894532zm0 0"/>
    <path d="m450.246094 457.703125c2.988281 2.988281 7.664062 3.78125 11.484375 1.996094 3.824219-1.785157 6.183593-5.921875 5.777343-10.128907-.40625-4.210937-3.476562-7.796874-7.570312-8.859374-4.085938-1.058594-8.542969.625-10.90625 4.128906-2.691406 3.988281-2.183594 9.449218 1.214844 12.863281 1.886718 1.886719-1.886719-1.894531 0 0zm0 0"/>
    <path d="m58.320312 440.386719c-4.230468 0-8.09375 2.738281-9.53125 6.710937-1.433593 3.964844-.1875 8.566406 3.074219 11.25s7.976563 3.046875 11.617188.910156c3.636719-2.136718 5.601562-6.488281 4.796875-10.632812-.914063-4.714844-5.144532-8.238281-9.957032-8.238281zm0 0"/>
    <path d="m390.707031 245.1875c-15.984375 0-28.984375 13-28.984375 28.984375v42.777344h-184.019531c-.300781-6.476563-3.929687-12.375-9.640625-15.53125-5.96875-3.300781-13.261719-3.097657-19.035156.523437l-44.269532 27.777344c-11.46875 7.195312-11.476562 24.554688 0 31.753906l44.269532 27.777344c5.648437 3.542969 13.1875 3.757812 19.035156.523438 5.511719-3.046876 9.085938-8.644532 9.601562-14.855469h213.042969c15.980469 0 28.980469-13.003907 28.980469-28.984375v-71.761719c0-15.984375-13-28.984375-28.980469-28.984375zm-233.25 125.410156-39.851562-25 39.851562-25.003906zm241.953125-24.664062c0 4.796875-3.90625 8.703125-8.703125 8.703125h-212.972656v-17.410157h194.128906c5.597657 0 10.136719-4.539062 10.136719-10.136718v-52.917969c0-4.800781 3.90625-8.707031 8.707031-8.707031 4.796875 0 8.703125 3.90625 8.703125 8.707031zm0 0"/>
    <path d="m93.457031 184.507812v71.765626c0 15.980468 13.003907 28.980468 28.984375 28.980468 15.980469 0 28.980469-13 28.980469-28.980468v-42.78125h184.300781c.410156 6.347656 4.019532 12.089843 9.628906 15.195312 5.863282 3.242188 13.375 3.027344 19.035157-.523438l44.269531-27.777343c11.472656-7.195313 11.476562-24.554688 0-31.757813l-44.269531-27.773437c-5.773438-3.625-13.070313-3.824219-19.035157-.523438-5.609374 3.101563-9.21875 8.847657-9.628906 15.191407h-213.28125c-15.980468.003906-28.984375 13.007812-28.984375 28.984374zm262.503907-25 39.847656 25-39.847656 25.003907zm-242.222657 25c0-4.796874 3.902344-8.703124 8.703125-8.703124h213.242188v17.410156h-194.398438c-5.601562 0-10.140625 4.539062-10.140625 10.140625v52.917969c0 4.796874-3.902343 8.703124-8.703125 8.703124-4.800781 0-8.703125-3.90625-8.703125-8.703124zm0 0"/>
</svg>