<?xml version="1.0" encoding="utf-8"?>
<!-- Generator: Adobe Illustrator 22.0.1, SVG Export Plug-In . SVG Version: 6.00 Build 0)  -->
<svg version="1.1" id="Layer_1" xmlns="http://www.w3.org/2000/svg" x="0px" y="0px"
     viewBox="0 0 143 27" style="enable-background:new 0 0 143 27;" xml:space="preserve">
<style type="text/css">
	.st0{display:none;}
	.st1{display:inline;fill:#EF4B5B;}
	.st2{display:inline;}
	.st3{fill:#FFFFFF;}
	.st4{display:inline;fill:#91163C;}
	.st5{display:inline;fill:#D02D5B;}
	.st6{display:inline;fill:none;}
	.st7{font-family:'Nyala-Regular';}
	.st8{font-size:14px;}
	.st9{display:inline;fill:#FFFFFF;}
	.st10{fill:#E6E7E8;}
	.st11{font-family:'PRATTLEISLANDfont-Regular';}
	.st12{font-size:17px;}
	.st13{display:inline;fill:none;stroke:#EE9DB2;stroke-width:2.2473;stroke-miterlimit:10;}
	.st14{display:inline;fill:none;stroke:#EE9DB2;stroke-width:1.8362;stroke-miterlimit:10;}
	.st15{fill:#D02D5B;}
	.st16{font-size:25.4761px;}
	.st17{fill:#91163C;}
	.st18{fill:#F8C4CD;}
	.st19{display:none;fill:none;stroke:#EE9DB2;stroke-width:2.2473;stroke-miterlimit:10;}
	.st20{fill:none;stroke:#EE9DB2;stroke-width:2.2473;stroke-miterlimit:10;}
	.st21{display:none;fill:none;stroke:#EE9DB2;stroke-width:2.0878;stroke-miterlimit:10;}
	.st22{fill:none;stroke:#EE9DB2;stroke-width:1.8362;stroke-miterlimit:10;}
	.st23{display:none;fill:none;stroke:#EE9DB2;stroke-width:1.6236;stroke-miterlimit:10;}
	.st24{display:none;fill:none;stroke:#EE9DB2;stroke-width:1.8362;stroke-miterlimit:10;}
</style>
    <title>Group 2</title>
    <desc>Created with Sketch.</desc>
    <g class="st0">
	<circle id="XMLID_34_" class="st1" cx="-18.7" cy="-8.5" r="13"/>
        <g id="XMLID_35_" class="st2">
		<path id="XMLID_36_" class="st3" d="M-18.3,1c-2.3,0-4.2-0.7-5.8-2.1c-1.6-1.5-2.4-3.4-2.4-5.8c0-2.3,0.8-4.6,2.3-7.1
			c1.7-2.7,3.6-4,5.7-4c1.1,0,2.3,0.3,3.7,0.8c1.7,0.7,2.6,1.5,2.6,2.4c0,0.4-0.1,0.8-0.4,1.1c-0.3,0.3-0.6,0.5-1,0.5
			c-0.3,0-0.6-0.1-0.9-0.3c-0.2-0.2-0.5-0.4-0.7-0.6c-0.7-0.5-1.7-0.8-3.3-0.8c-1.1,0-2.3,1-3.4,3.1c-1,1.9-1.5,3.5-1.5,4.9
			c0,1.5,0.5,2.7,1.5,3.5c0.9,0.8,2.2,1.2,3.6,1.2c0.7,0,1.4-0.2,2.2-0.5l2-1c0.3-0.2,0.6-0.3,0.7-0.3c0.4,0,0.8,0.2,1.1,0.5
			s0.5,0.7,0.5,1.1c0,0.8-0.9,1.6-2.6,2.4C-16,0.7-17.3,1-18.3,1z"/>
	</g>
</g>
    <g class="st0">
	<path class="st4" d="M27.2,13.5c0,6.5-5.3,11.8-11.8,11.8C8.9,25.3,3.6,20,3.6,13.5C3.6,7,8.9,1.7,15.4,1.7
		C21.9,1.7,27.2,7,27.2,13.5z"/>
        <path class="st5" d="M25.2,13.5c0,6.5-5.3,11.8-11.8,11.8C6.8,25.3,1.6,20,1.6,13.5C1.6,7,6.8,1.7,13.4,1.7
		C19.9,1.7,25.2,7,25.2,13.5z"/>
        <path class="st6" d="M28.1,13.5c0,6.3-5.1,11.3-11.3,11.3c-6.3,0-11.3-5.1-11.3-11.3c0-6.3,5.1-11.3,11.3-11.3
		C23,2.2,28.1,7.2,28.1,13.5z"/>
        <text transform="matrix(1 0 0 1 11.8291 11.3496)" class="st7 st8">L</text>
        <path class="st9" d="M13.1,7.4c-0.1,1,0,2.1,0.2,3c0.2,0.9,0.6,1.8,1.2,2.5c1,1.3,2.6,2.1,4.2,2.3c1.8,0.3,3.6-0.2,5.1-1.2
		c0.8-0.5,1.4-1.2,2-1.9c0.1-0.1,0.1-0.1,0.2-0.2c0-0.1,0-0.1,0-0.2c0-4.2-3.4-7.7-7.7-7.7c-1.8,0-3.5,0.6-4.8,1.7
		C13.2,6.4,13.1,6.9,13.1,7.4z"/>
        <path class="st10" d="M26.7,15.4c-0.9,0.9-2,1.7-3.1,2.3c-4.2,2.2-10.1,1-12.9-3C10,13.6,9.5,12.3,9.3,11C9,9.6,8.9,8.1,9.1,6.6
		C9.2,6,9.3,5.4,9.5,4.8C7,6.8,5.4,10,5.4,13.5c0,6.3,5.1,11.3,11.3,11.3c6.1,0,11.1-4.9,11.3-10.9C27.7,14.4,27.2,14.9,26.7,15.4z"
        />
        <path class="st6" d="M26.5,13.5c0,5.4-4.4,9.7-9.7,9.7c-5.4,0-9.7-4.4-9.7-9.7c0-5.4,4.4-9.7,9.7-9.7C22.1,3.8,26.5,8.1,26.5,13.5z
		"/>
        <text transform="matrix(1 0 0 1 11.8027 17.2471)" class="st11 st12">L</text>
        <path class="st6"
              d="M22.6,13.5c0,3.3-2.6,5.9-5.9,5.9c-3.2,0-5.9-2.6-5.9-5.9c0-3.3,2.6-5.9,5.9-5.9C20,7.6,22.6,10.2,22.6,13.5z"
        />
        <text transform="matrix(1 0 0 1 13.2925 16.8105)" class="st7 st8">L</text>
        <path class="st13"
              d="M23.9,13.5c0,4-3.2,7.2-7.2,7.2c-4,0-7.2-3.2-7.2-7.2c0-4,3.2-7.2,7.2-7.2C20.7,6.3,23.9,9.5,23.9,13.5z"/>
        <path class="st6"
              d="M21.2,13.5c0,2.5-2,4.4-4.4,4.4c-2.5,0-4.4-2-4.4-4.4c0-2.5,2-4.4,4.4-4.4C19.2,9.1,21.2,11,21.2,13.5z"/>
        <path class="st6"
              d="M20.1,13.5c0,1.9-1.5,3.4-3.4,3.4c-1.9,0-3.4-1.5-3.4-3.4s1.5-3.4,3.4-3.4C18.6,10.1,20.1,11.6,20.1,13.5z"/>
        <path class="st14"
              d="M16.7,13.5c0,1.1-0.6,1.9-1.4,1.9c-0.7,0-1.4-0.9-1.4-1.9s0.6-1.9,1.4-1.9C16.1,11.6,16.7,12.4,16.7,13.5z"/>
        <path class="st14" d="M19.4,13.5c0,1.1-0.6,1.9-1.3,1.9c-0.7,0-1.4-0.9-1.4-1.9c0-1.1,0.6-1.9,1.3-1.9
		C18.8,11.6,19.4,12.4,19.4,13.5z"/>
        <path class="st14" d="M17.6,11.3c0,0.3-0.4,0.5-0.8,0.5c-0.5,0-0.8-0.2-0.8-0.5c0-0.3,0.4-0.5,0.8-0.5C17.2,10.8,17.6,11,17.6,11.3
		z"/>
</g>
    <text transform="matrix(0.8228 0 0 1 28.247 23.6133)" class="st15 st11 st16">nion.Opinion</text>
    <g>
	<path class="st17" d="M25,13.5c0,7-5.5,12.7-12.4,12.7c-6.8,0-12.4-5.7-12.4-12.7c0-7,5.5-12.7,12.4-12.7C19.5,0.9,25,6.5,25,13.5z
		"/>
        <path class="st15" d="M26.4,13.5c0,7-5.5,12.7-12.4,12.7c-6.8,0-12.4-5.7-12.4-12.7c0-7,5.5-12.7,12.4-12.7
		C20.9,0.9,26.4,6.5,26.4,13.5z"/>
        <path class="st18" d="M25.9,13.5c0,6.7-5.3,12.2-11.9,12.2c-6.6,0-11.9-5.4-11.9-12.2C2.2,6.8,7.5,1.4,14,1.4
		C20.6,1.4,25.9,6.8,25.9,13.5z"/>
        <path class="st3" d="M10.2,7c-0.1,1.1,0,2.2,0.2,3.3c0.2,1,0.6,1.9,1.2,2.7c1.1,1.4,2.7,2.2,4.4,2.5c1.9,0.3,3.8-0.2,5.3-1.3
		c0.8-0.6,1.5-1.3,2.1-2c0.1-0.1,0.1-0.1,0.2-0.2c0-0.1,0-0.1,0-0.2c0-4.6-3.6-8.2-8.1-8.2c-1.9,0-3.7,0.7-5,1.8
		C10.4,5.9,10.3,6.4,10.2,7z"/>
        <path class="st10" d="M24.5,15.6c-1,1-2,1.9-3.3,2.5c-4.4,2.4-10.6,1.1-13.5-3.2c-0.8-1.2-1.3-2.6-1.5-4C5.9,9.3,5.9,7.7,6.1,6.2
		c0.1-0.7,0.2-1.4,0.4-2c-2.6,2.2-4.3,5.6-4.3,9.4c0,6.7,5.3,12.2,11.9,12.2c6.4,0,11.6-5.2,11.9-11.7C25.5,14.5,25,15.1,24.5,15.6z
		"/>
        <path class="st19" d="M24.2,13.5c0,5.8-4.6,10.4-10.2,10.4c-5.6,0-10.2-4.7-10.2-10.4C3.9,7.8,8.4,3.1,14,3.1
		C19.7,3.1,24.2,7.8,24.2,13.5z"/>
        <path class="st20" d="M23,13.5c0,5.1-4,9.2-9,9.2c-5,0-9-4.1-9-9.2c0-5.1,4-9.2,9-9.2C19,4.3,23,8.4,23,13.5z"/>
        <path class="st21" d="M20.2,13.5c0,3.5-2.8,6.3-6.2,6.3c-3.4,0-6.2-2.8-6.2-6.3c0-3.5,2.8-6.3,6.2-6.3C17.4,7.2,20.2,10,20.2,13.5z
		"/>
        <path class="st19" d="M21.6,13.5c0,4.2-3.4,7.7-7.5,7.7c-4.1,0-7.5-3.4-7.5-7.7c0-4.2,3.4-7.7,7.5-7.7C18.2,5.8,21.6,9.3,21.6,13.5
		z"/>
        <path class="st22" d="M18.7,13.5c0,2.6-2.1,4.8-4.7,4.8c-2.6,0-4.7-2.1-4.7-4.8c0-2.6,2.1-4.8,4.7-4.8
		C16.6,8.8,18.7,10.9,18.7,13.5z"/>
        <path class="st23"
              d="M17.6,13.5c0,2-1.6,3.6-3.5,3.6c-1.9,0-3.5-1.6-3.5-3.6s1.6-3.6,3.5-3.6C16,9.9,17.6,11.5,17.6,13.5z"/>
        <path class="st22"
              d="M14,13.5c0,1.1-0.6,2.1-1.4,2.1c-0.8,0-1.4-0.9-1.4-2.1s0.6-2.1,1.4-2.1C13.4,11.4,14,12.4,14,13.5z"/>
        <path class="st22" d="M16.9,13.5c0,1.1-0.6,2.1-1.4,2.1c-0.8,0-1.4-0.9-1.4-2.1c0-1.1,0.6-2.1,1.4-2.1
		C16.2,11.4,16.9,12.4,16.9,13.5z"/>
        <path class="st24" d="M14.9,11.2c0,0.3-0.4,0.5-0.9,0.5c-0.5,0-0.9-0.2-0.9-0.5c0-0.3,0.4-0.5,0.9-0.5
		C14.5,10.6,14.9,10.9,14.9,11.2z"/>
</g>
    <g class="st0">
</g>
</svg>
