<?xml version="1.0" encoding="utf-8"?>
<!-- Generator: Adobe Illustrator 19.0.0, SVG Export Plug-In . SVG Version: 6.00 Build 0)  -->
<svg version="1.1" id="ab0c8d57-73b5-4efc-a896-a2305a232bd8"
     xmlns="http://www.w3.org/2000/svg" xmlns:xlink="http://www.w3.org/1999/xlink" x="0px" y="0px"
     viewBox="477.7 -305 1000 710"
     style="enable-background:new 477.7 -305 1000 710;" xml:space="preserve">
<style type="text/css">
	.st0{opacity:0.4;fill:#EFC673;enable-background:new    ;}
	.st1{fill:#3F3D56;}
	.st2{fill:#F2F2F2;}
	.st3{fill:#2F2E41;}
	.st4{fill:#EFC673;}
	.st5{opacity:0.3;fill:#EFC673;enable-background:new    ;}
	.st6{fill:#FFFFFF;}
</style>
    <title>experience design</title>
    <circle class="st0" cx="1152.5" cy="57.3" r="73.5"/>
    <rect x="744.4" y="159" class="st1" width="409.7" height="111.1"/>
    <path class="st2" d="M1127.9-116.2l-16.4,7.7l14.5-10.8c-2.4-3.7-5-7.2-7.9-10.4l-71,17.6l64.1-24.4c-2.9-2.6-6-5-9.3-7.1
	l-108.1,17.4c-11.5,14.4-17.7,32.2-17.7,50.6h162.8C1138.8-89.8,1135-103.8,1127.9-116.2z"/>
    <path class="st2" d="M1140.9-235.2c-65-31.7-136.5-48.2-208.8-48.1c-147.3,0-278.9,66.8-366.4,171.7
	C715.4-144.3,976.1-201.1,1140.9-235.2z"/>
    <rect x="485.9" y="381.1" class="st3" width="976.5" height="1.9"/>
    <path class="st1" d="M1056.4-75.6l-55.4-82.3c0,0,83.9,29.3,74.4,82.3H1056.4z"/>
    <path class="st4" d="M1058.5-75.6l55.4-82.3c0,0-83.9,29.3-74.4,82.3H1058.5z"/>
    <path class="st3" d="M1154.6,383H743.9v-612.7h410.7V383z M745.8,381.1h406.9v-608.9H745.8V381.1z"/>
    <rect x="745.4" y="-215.2" class="st3" width="408.8" height="1.9"/>
    <circle class="st4" cx="755.9" cy="-222" r="3.8"/>
    <circle class="st4" cx="766.4" cy="-222" r="3.8"/>
    <circle class="st4" cx="776.9" cy="-222" r="3.8"/>
    <rect x="759.7" y="-201.9" class="st4" width="17.2" height="9.6"/>
    <rect x="759.7" y="-126.3" class="st4" width="84.2" height="9.6"/>
    <rect x="1059.4" y="-201.9" class="st2" width="84.2" height="9.6"/>
    <rect x="759.7" y="-110" class="st2" width="141.7" height="5.7"/>
    <rect x="759.7" y="-97.6" class="st2" width="134" height="5.7"/>
    <rect x="759.7" y="-85.1" class="st2" width="97.7" height="5.7"/>
    <rect x="792.3" y="85.3" class="st2" width="55.5" height="5.7"/>
    <rect x="792.3" y="97.7" class="st2" width="52.5" height="5.7"/>
    <rect x="792.3" y="110.2" class="st2" width="38.3" height="5.7"/>
    <rect x="921.5" y="85.3" class="st2" width="55.5" height="5.7"/>
    <rect x="921.5" y="97.7" class="st2" width="52.5" height="5.7"/>
    <rect x="921.5" y="110.2" class="st2" width="38.3" height="5.7"/>
    <rect x="1055.5" y="85.3" class="st2" width="55.5" height="5.7"/>
    <rect x="1055.5" y="97.7" class="st2" width="52.5" height="5.7"/>
    <rect x="1055.5" y="110.2" class="st2" width="38.3" height="5.7"/>
    <rect x="878.4" y="302.6" class="st4" width="84.2" height="9.6"/>
    <rect x="878.4" y="318.9" class="st2" width="141.7" height="5.7"/>
    <rect x="878.4" y="331.3" class="st2" width="134" height="5.7"/>
    <rect x="878.4" y="343.8" class="st2" width="97.7" height="5.7"/>
    <rect x="785.1" y="-22.9" class="st5" width="333.2" height="1.9"/>
    <rect x="784.6" y="10.6" class="st5" width="70.8" height="63.2"/>
    <rect x="913.8" y="10.6" class="st1" width="70.8" height="63.2"/>
    <rect x="1047.9" y="10.6" class="st1" width="70.8" height="63.2"/>
    <path class="st4" d="M940,73.5l-0.9,0c0-1,0.6-25.4,10.2-32.2l0.5,0.8C940.6,48.6,940,73.3,940,73.5z"/>
    <circle class="st4" cx="954.3" cy="36.3" r="4.7"/>
    <path class="st4" d="M953.3,52.8c-2.4,0.8-5,0.9-7.5,0.3c3.2-4.1,8.6-5.9,13.6-4.7C957.8,50.5,955.7,52,953.3,52.8z"/>
    <path class="st4" d="M1074.1,73.5l-0.9,0c0-1,0.6-25.4,10.2-32.2l0.5,0.8C1074.7,48.6,1074.1,73.3,1074.1,73.5z"/>
    <circle class="st4" cx="1088.3" cy="36.3" r="4.7"/>
    <path class="st4"
          d="M1087.3,52.8c-2.4,0.8-5,0.9-7.5,0.3c3.2-4.1,8.6-5.9,13.6-4.7C1091.8,50.5,1089.7,52,1087.3,52.8z"/>
    <rect x="759.7" y="194.4" class="st4" width="84.2" height="9.6"/>
    <rect x="759.7" y="210.7" class="st2" width="141.7" height="5.7"/>
    <rect x="759.7" y="223.1" class="st2" width="134" height="5.7"/>
    <rect x="759.7" y="235.6" class="st2" width="97.7" height="5.7"/>
    <circle class="st0" cx="1071.6" cy="207.6" r="29.9"/>
    <circle class="st0" cx="1016.2" cy="221.9" r="21"/>
    <circle class="st3" cx="646.3" cy="274.3" r="75.6"/>
    <rect x="611.8" y="333.7" class="st3" width="23" height="41.2"/>
    <rect x="657.8" y="333.7" class="st3" width="23" height="41.2"/>
    <ellipse class="st3" cx="630.9" cy="375.4" rx="19.1" ry="7.2"/>
    <ellipse class="st3" cx="676.9" cy="374.4" rx="19.1" ry="7.2"/>
    <circle class="st6" cx="648.2" cy="255.2" r="25.8"/>
    <circle class="st1" cx="648.2" cy="243.7" r="8.6"/>
    <path class="st4"
          d="M572.9,204c-6.1-27.3,13.4-55,43.6-61.7s59.6,10,65.7,37.3c6.1,27.3-13.9,37.4-44.1,44.2S579,231.4,572.9,204z"
    />
    <ellipse transform="matrix(-0.9069 -0.4214 0.4214 -0.9069 1261.1251 660.0201)" class="st3" cx="703.5" cy="190.7"
             rx="11.9" ry="37.8"/>
    <ellipse transform="matrix(-0.4678 -0.8838 0.8838 -0.4678 640.0274 812.6543)" class="st3" cx="564.7" cy="213.6"
             rx="37.8" ry="11.9"/>
    <ellipse transform="matrix(-0.3596 -0.9331 0.9331 -0.3596 1524.5198 1482.4492)" class="st3" cx="1270.9" cy="218.1"
             rx="37.8" ry="11.9"/>
    <circle class="st3" cx="1341" cy="275" r="75.6"/>
    <rect x="1352.7" y="334.3" transform="matrix(1 -2.799989e-003 2.799989e-003 1 -0.9883 3.8212)" class="st3"
          width="23" height="41.2"/>
    <rect x="1306.8" y="334.4" transform="matrix(1 -2.801098e-003 2.801098e-003 1 -0.9893 3.6939)" class="st3"
          width="23" height="41.2"/>
    <ellipse transform="matrix(-2.801064e-003 -1 1 -2.801064e-003 984.4334 1733.6439)" class="st3" cx="1356.6" cy="376"
             rx="7.2" ry="19.1"/>
    <ellipse transform="matrix(-2.801064e-003 -1 1 -2.801064e-003 939.1774 1686.8572)" class="st3" cx="1310.7"
             cy="375.2" rx="7.2" ry="19.1"/>
    <circle class="st6" cx="1339" cy="255.9" r="25.8"/>
    <circle class="st1" cx="1339" cy="255.9" r="8.6"/>
    <path class="st4" d="M1414.2,204.5c6-27.4-13.6-54.9-43.8-61.6s-59.6,10.1-65.6,37.5c-6,27.4,14,37.4,44.2,44.1
	C1379.2,231.1,1408.1,231.8,1414.2,204.5z"/>
    <ellipse transform="matrix(-0.4311 -0.9023 0.9023 -0.4311 1824.5508 1629.8112)" class="st3" cx="1426.1" cy="239.7"
             rx="11.9" ry="37.8"/>
    <path class="st6" d="M1378.2,302.2c0,7.4-19,22.1-40.1,22.1c-21.1,0.1-41-20.7-41.1-28.1s19.8,1.4,41,1.3
	C1359.2,297.5,1378.2,294.8,1378.2,302.2z"/>
    <circle class="st0" cx="1364" cy="165.5" r="105.5"/>
    <circle class="st3" cx="668.2" cy="50.5" r="75.6"/>
    <rect x="619.9" y="104.5" transform="matrix(-0.984 -0.1781 0.1781 -0.984 1230.3096 360.6143)" class="st3" width="23"
          height="41.2"/>
    <rect x="665.1" y="112.7" transform="matrix(-0.984 -0.1781 0.1781 -0.984 1318.5648 384.9098)" class="st3" width="23"
          height="41.2"/>
    <ellipse transform="matrix(-0.7631 -0.6463 0.6463 -0.7631 1090.8352 717.0628)" class="st3" cx="676.8" cy="158.6"
             rx="19.1" ry="7.2"/>
    <ellipse transform="matrix(-0.7631 -0.6463 0.6463 -0.7631 1017.9515 674.3167)" class="st3" cx="632.6" cy="150.6"
             rx="19.1" ry="7.2"/>
    <circle class="st6" cx="673.5" cy="32" r="25.8"/>
    <circle class="st1" cx="684.1" cy="22.7" r="8.6"/>
    <path class="st4" d="M608.5-31.8c-1.1-28,23-51.7,53.9-53c30.9-1.3,56.9,20.4,58,48.4c1.1,28-20.3,34.4-51.3,35.6
	C638.3,0.6,609.7-3.8,608.5-31.8z"/>
    <ellipse transform="matrix(-0.2234 -0.9747 0.9747 -0.2234 867.119 764.3066)" class="st3" cx="738" cy="36.7"
             rx="11.9" ry="37.8"/>
    <ellipse transform="matrix(-0.2234 -0.9747 0.9747 -0.2234 661.4231 649.8029)" class="st3" cx="589.6" cy="61.4"
             rx="11.9" ry="37.8"/>
    <path class="st6" d="M647.4,80.3c-1.7,9.4,4.5,18.3,13.9,20c9.4,1.7,18.3-4.5,20-13.9c1.7-9.4-5.5-12.7-14.9-14.4
	C657.1,70.4,649.1,70.9,647.4,80.3z"/>
    <rect x="767.8" y="-22.4" transform="matrix(-0.9579 -0.2872 0.2872 -0.9579 1570.0771 248.6134)" class="st1"
          width="70.8" height="63.2"/>
    <path class="st4" d="M785.4,36.5l-0.9-0.3c0.3-1,7.9-24.2,19-27.9l0.3,0.9C793.2,12.8,785.5,36.3,785.4,36.5z"/>
    <circle class="st4" cx="809.7" cy="5" r="4.7"/>
    <path class="st4" d="M804.1,20.5c-2.5,0-5.1-0.6-7.3-1.8c4.3-3,9.9-3.2,14.4-0.6C809.1,19.5,806.6,20.4,804.1,20.5z"/>
</svg>
